<svg fill="#47C090" xmlns="http://www.w3.org/2000/svg" viewBox="0 0 229.345 229.345" enable-background="new 0 0 229.345 229.345"><path d="M126.367 114.545h3.332l99.646 38.573v-32.72l-22.96-11.871v-23.976c0-2.99-2.433-5.413-5.442-5.413-2.999 0-5.422 2.423-5.422 5.413v18.387l-29.271-15.114v-24.865c0-2.98-2.443-5.383-5.432-5.383s-5.422 2.403-5.422 5.383v19.267l-25.715-13.268h-1.378l1.798-41.699c-.02-10.063-8.158-18.221-18.231-18.221-10.063 0-18.231 8.148-18.231 18.221l1.798 41.699h-2.198l-18.996 10.473v-16.472c0-2.98-2.433-5.383-5.432-5.383-2.999 0-5.403 2.403-5.403 5.383v22.481l-23.868 13.151v-17.762c0-2.99-2.443-5.422-5.422-5.422-2.999 0-5.422 2.433-5.422 5.422v23.742l-28.696 15.827v32.73l93.227-38.573h4.143l2.697 62.998c0 3.615.244 6.986 1.006 9.839l-30.366 16.727-3.879 16.189 38.895-6.722h13.668l41.289 6.722-3.879-16.189-33.971-17.519c.606-2.687.84-5.764.84-9.057l2.697-62.998z" /></svg>